HIERARCHY
ROOT root
{
	OFFSET	0	13.1	24.9
	CHANNELS 6  Xposition Yposition Zposition Xrotation Yrotation Zrotation
	JOINT spine_1
	{
		OFFSET	0	9.99999	0
		CHANNELS 3  Xrotation Yrotation Zrotation
		JOINT spine_2
		{
			OFFSET	0	112	-10
			CHANNELS 3  Xrotation Yrotation Zrotation
			JOINT spine_3
			{
				OFFSET	0	206.5	19.3
				CHANNELS 3  Xrotation Yrotation Zrotation
				JOINT spine_4
				{
					OFFSET	0	110.4	14.6
					CHANNELS 3  Xrotation Yrotation Zrotation
					JOINT neck_1
					{
						OFFSET	0	71.8	-50.3
						CHANNELS 3  Xrotation Yrotation Zrotation
						JOINT neck_2
						{
							OFFSET	0	86.2	-25.8
							CHANNELS 3  Xrotation Yrotation Zrotation
							JOINT head_ee
							{
								OFFSET	0	179.8	-8.7
								CHANNELS 3  Xrotation Yrotation Zrotation
								End Site
								{
									OFFSET	1	0	0
								}
							}
						}
					}
					JOINT left_clavicle
					{
						OFFSET	-43.2	22.4	-70.8
						CHANNELS 3  Xrotation Yrotation Zrotation
						JOINT left_shoulder
						{
							OFFSET	-93.9	-5.79999	48.7
							CHANNELS 3  Xrotation Yrotation Zrotation
							JOINT left_elbow
							{
								OFFSET	-291.4	-30.8	15.2
								CHANNELS 3  Xrotation Yrotation Zrotation
								JOINT left_lowarm_twist
								{
									OFFSET	-110.7	-3.89999	13.6
									CHANNELS 3  Xrotation Yrotation Zrotation
									JOINT left_hand
									{
										OFFSET	-110.7	-3.89999	13.6
										CHANNELS 3  Xrotation Yrotation Zrotation
										JOINT left_ee
										{
											OFFSET	-80.8	-5.10001	12.1
											CHANNELS 3  Xrotation Yrotation Zrotation
											End Site
											{
												OFFSET	1	0	0
											}
										}
									}
								}
							}
						}
					}
					JOINT right_clavicle
					{
						OFFSET	43.2	22.4	-70.8
						CHANNELS 3  Xrotation Yrotation Zrotation
						JOINT right_shoulder
						{
							OFFSET	93.9	-5.79999	48.7
							CHANNELS 3  Xrotation Yrotation Zrotation
							JOINT right_elbow
							{
								OFFSET	291.4	-30.8	15.2
								CHANNELS 3  Xrotation Yrotation Zrotation
								JOINT right_lowarm_twist
								{
									OFFSET	110.7	-3.89999	13.6
									CHANNELS 3  Xrotation Yrotation Zrotation
									JOINT right_hand
									{
										OFFSET	110.7	-3.89999	13.6
										CHANNELS 3  Xrotation Yrotation Zrotation
										JOINT right_ee
										{
											OFFSET	80.8	-5.10001	12.1
											CHANNELS 3  Xrotation Yrotation Zrotation
											End Site
											{
												OFFSET	1	0	0
											}
										}
									}
								}
							}
						}
					}
				}
			}
		}
	}
	JOINT left_hip
	{
		OFFSET	-82.8	-127.5	0.300001
		CHANNELS 3  Xrotation Yrotation Zrotation
		JOINT left_knee
		{
			OFFSET	-28.2	-396.7	2.2
			CHANNELS 3  Xrotation Yrotation Zrotation
			JOINT left_ankle
			{
				OFFSET	-11.7	-411.3	35.4
				CHANNELS 3  Xrotation Yrotation Zrotation
				JOINT left_toes
				{
					OFFSET	0	-60	-88.6
					CHANNELS 3  Xrotation Yrotation Zrotation
					JOINT left_foot_ee
					{
						OFFSET	-22.5	-16.5	-42.2
						CHANNELS 3  Xrotation Yrotation Zrotation
						End Site
						{
							OFFSET	1	0	0
						}
					}
				}
			}
		}
	}
	JOINT right_hip
	{
		OFFSET	82.8	-127.5	0.300001
		CHANNELS 3  Xrotation Yrotation Zrotation
		JOINT right_knee
		{
			OFFSET	28.2	-396.7	2.2
			CHANNELS 3  Xrotation Yrotation Zrotation
			JOINT right_ankle
			{
				OFFSET	11.7	-411.3	35.4
				CHANNELS 3  Xrotation Yrotation Zrotation
				JOINT right_toes
				{
					OFFSET	0	-60	-88.6
					CHANNELS 3  Xrotation Yrotation Zrotation
					JOINT right_foot_ee
					{
						OFFSET	22.5	-16.5	-42.2
						CHANNELS 3  Xrotation Yrotation Zrotation
						End Site
						{
							OFFSET	1	0	0
						}
					}
				}
			}
		}
	}
}
MOTION
Frames: 13
Frame Time: 0.02
3574.42 741.953 -1474.73 -7.74329938485 52.563168422 5.55540730395 2.55531 0.095199 0.381379 2.55538 0.0707381 0.386663 2.55585 0.00542375 0.393043 2.55564 0.0674291 0.387254 -19.4102 19.6239 6.1476 -21.1908 34.6623 14.4482 -0.0 0.0 -0.0 0.268573 23.2152 3.05672 -11.8893 -21.6104 61.9759 2.18968 -47.3205 0.959483 -26.3925 -1.63346 2.92237 -0.124771 1.2434 -0.307118 -0.0 0.0 -0.0 13.3585 25.6624 -26.5473 -22.2078 12.5047 -64.8829 0.55363 15.3366 -0.0745424 75.354 3.31402 8.32648 -2.22919 -27.6454 1.35725 0.0 0.0 0.0 -0.979862 56.1107 -1.01107 0.122736 -0.00507321 -0.0181516 24.2488 -30.6492 -4.07597 -4.9325 0.0 0.0 -0.0 0.0 -0.0 9.32769 -2.71096 2.32152 -10.4902 -0.287772 -1.58195 34.7037 33.6221 5.62784 -12.3334 0.0 0.0 0.0 0.0 0.0 
3574.42 741.953 -1474.73 -7.64311631829 51.9894850445 5.42875054719 2.55531 0.095199 0.381379 2.55538 0.0707381 0.386663 2.55585 0.00542375 0.393043 2.55564 0.0674291 0.387254 -19.4102 19.6239 6.1476 -21.1908 34.6623 14.4482 -0.0 0.0 -0.0 0.268573 23.2152 3.05672 -11.8893 -21.6104 61.9759 2.18968 -47.3205 0.959483 -26.3925 -1.63346 2.92237 -0.124771 1.2434 -0.307118 -0.0 0.0 -0.0 13.3585 25.6624 -26.5473 -22.2078 12.5047 -64.8829 0.55363 15.3366 -0.0745424 75.354 3.31402 8.32648 -2.22919 -27.6454 1.35725 0.0 0.0 0.0 -0.979862 56.1107 -1.01107 0.122736 -0.00507321 -0.0181516 24.2488 -30.6492 -4.07597 -4.9325 0.0 0.0 -0.0 0.0 -0.0 9.32769 -2.71096 2.32152 -10.4902 -0.287772 -1.58195 34.7037 33.6221 5.62784 -12.3334 0.0 0.0 0.0 0.0 0.0 
3574.42 741.953 -1474.73 -7.52027471643 51.2586408752 5.27205891251 2.55531 0.095199 0.381379 2.55538 0.0707381 0.386663 2.55585 0.00542375 0.393043 2.55564 0.0674291 0.387254 -19.4102 19.6239 6.1476 -21.1908 34.6623 14.4482 -0.0 0.0 -0.0 0.268573 23.2152 3.05672 -11.8893 -21.6104 61.9759 2.18968 -47.3205 0.959483 -26.3925 -1.63346 2.92237 -0.124771 1.2434 -0.307118 -0.0 0.0 -0.0 13.3585 25.6624 -26.5473 -22.2078 12.5047 -64.8829 0.55363 15.3366 -0.0745424 75.354 3.31402 8.32648 -2.22919 -27.6454 1.35725 0.0 0.0 0.0 -0.979862 56.1107 -1.01107 0.122736 -0.00507321 -0.0181516 24.2488 -30.6492 -4.07597 -4.9325 0.0 0.0 -0.0 0.0 -0.0 9.32769 -2.71096 2.32152 -10.4902 -0.287772 -1.58195 34.7037 33.6221 5.62784 -12.3334 0.0 0.0 0.0 0.0 0.0 
3574.42 741.953 -1474.73 -7.36989871804 50.3197793736 5.0779882435 2.55531 0.095199 0.381379 2.55538 0.0707381 0.386663 2.55585 0.00542375 0.393043 2.55564 0.0674291 0.387254 -19.4102 19.6239 6.1476 -21.1908 34.6623 14.4482 -0.0 0.0 -0.0 0.268573 23.2152 3.05672 -11.8893 -21.6104 61.9759 2.18968 -47.3205 0.959483 -26.3925 -1.63346 2.92237 -0.124771 1.2434 -0.307118 -0.0 0.0 -0.0 13.3585 25.6624 -26.5473 -22.2078 12.5047 -64.8829 0.55363 15.3366 -0.0745424 75.354 3.31402 8.32648 -2.22919 -27.6454 1.35725 0.0 0.0 0.0 -0.979862 56.1107 -1.01107 0.122736 -0.00507321 -0.0181516 24.2488 -30.6492 -4.07597 -4.9325 0.0 0.0 -0.0 0.0 -0.0 9.32769 -2.71096 2.32152 -10.4902 -0.287772 -1.58195 34.7037 33.6221 5.62784 -12.3334 0.0 0.0 0.0 0.0 0.0 
3574.42 741.953 -1474.73 -7.22578847998 49.3703712519 4.88944374195 2.55531 0.095199 0.381379 2.55538 0.0707381 0.386663 2.55585 0.00542375 0.393043 2.55564 0.0674291 0.387254 -19.4102 19.6239 6.1476 -21.1908 34.6623 14.4482 -0.0 0.0 -0.0 0.268573 23.2152 3.05672 -11.8893 -21.6104 61.9759 2.18968 -47.3205 0.959483 -26.3925 -1.63346 2.92237 -0.124771 1.2434 -0.307118 -0.0 0.0 -0.0 13.3585 25.6624 -26.5473 -22.2078 12.5047 -64.8829 0.55363 15.3366 -0.0745424 75.354 3.31402 8.32648 -2.22919 -27.6454 1.35725 0.0 0.0 0.0 -0.979862 56.1107 -1.01107 0.122736 -0.00507321 -0.0181516 24.2488 -30.6492 -4.07597 -4.9325 0.0 0.0 -0.0 0.0 -0.0 9.32769 -2.71096 2.32152 -10.4902 -0.287772 -1.58195 34.7037 33.6221 5.62784 -12.3334 0.0 0.0 0.0 0.0 0.0 
3574.42 741.953 -1474.73 -7.05954785787 48.2086265676 4.6684770037 2.55531 0.095199 0.381379 2.55538 0.0707381 0.386663 2.55585 0.00542375 0.393043 2.55564 0.0674291 0.387254 -19.4102 19.6239 6.1476 -21.1908 34.6623 14.4482 -0.0 0.0 -0.0 0.268573 23.2152 3.05672 -11.8893 -21.6104 61.9759 2.18968 -47.3205 0.959483 -26.3925 -1.63346 2.92237 -0.124771 1.2434 -0.307118 -0.0 0.0 -0.0 13.3585 25.6624 -26.5473 -22.2078 12.5047 -64.8829 0.55363 15.3366 -0.0745424 75.354 3.31402 8.32648 -2.22919 -27.6454 1.35725 0.0 0.0 0.0 -0.979862 56.1107 -1.01107 0.122736 -0.00507321 -0.0181516 24.2488 -30.6492 -4.07597 -4.9325 0.0 0.0 -0.0 0.0 -0.0 9.32769 -2.71096 2.32152 -10.4902 -0.287772 -1.58195 34.7037 33.6221 5.62784 -12.3334 0.0 0.0 0.0 0.0 0.0 
3571.88266332 745.643 -1477.27338801 -6.91858766374 47.5377051854 4.46651813371 2.52647 0.176376 0.37754 2.52654 0.151995 0.387998 2.52757 0.085127 0.407919 2.52737 0.148481 0.389356 -19.1518 19.865 6.15766 -20.9451 35.0882 14.4865 -0.0 0.0 -0.0 0.112452 23.51 2.87322 -13.044 -22.0577 62.1171 2.16041 -46.9363 0.938037 -27.0745 -1.69277 2.9866 0.0204387 0.635807 0.403994 -0.0 0.0 -0.0 13.3855 25.4126 -26.639 -21.8794 12.4079 -64.8689 0.549253 15.221 -0.0733889 75.3183 3.31008 8.32414 -2.37651 -27.6724 2.14664 0.0 0.0 0.0 -0.72122 55.8344 -1.28318 -0.581549 0.0235086 0.0861487 23.445 -30.5214 -3.9545 -4.58919 0.0 0.0 -0.0 0.0 -0.0 9.14504 -2.6271 2.33429 -10.4952 -0.28784 -1.58271 34.4002 33.0548 5.54832 -12.2909 0.0 0.0 0.0 0.0 0.0 
3571.95870794 745.643 -1477.34704823 -6.70603776732 45.861112797 4.17449154414 2.52647 0.176376 0.37754 2.52654 0.151995 0.387998 2.52757 0.085127 0.407919 2.52737 0.148481 0.389356 -19.1518 19.865 6.15766 -20.9451 35.0882 14.4865 -0.0 0.0 -0.0 0.112452 23.51 2.87322 -13.044 -22.0577 62.1171 2.16041 -46.9363 0.938037 -27.0745 -1.69277 2.9866 0.0204387 0.635807 0.403994 -0.0 0.0 -0.0 13.3855 25.4126 -26.639 -21.8794 12.4079 -64.8689 0.549253 15.221 -0.0733889 75.3183 3.31008 8.32414 -2.37651 -27.6724 2.14664 0.0 0.0 0.0 -0.72122 55.8344 -1.28318 -0.581549 0.0235086 0.0861487 23.445 -30.5214 -3.9545 -4.58919 0.0 0.0 -0.0 0.0 -0.0 9.14504 -2.6271 2.33429 -10.4952 -0.28784 -1.58271 34.4002 33.0548 5.54832 -12.2909 0.0 0.0 0.0 0.0 0.0 
3572.04804168 745.643 -1477.42827977 -6.48555370309 43.948115099 3.86220349603 2.52647 0.176376 0.37754 2.52654 0.151995 0.387998 2.52757 0.085127 0.407919 2.52737 0.148481 0.389356 -19.1518 19.865 6.15766 -20.9451 35.0882 14.4865 -0.0 0.0 -0.0 0.112452 23.51 2.87322 -13.044 -22.0577 62.1171 2.16041 -46.9363 0.938037 -27.0745 -1.69277 2.9866 0.0204387 0.635807 0.403994 -0.0 0.0 -0.0 13.3855 25.4126 -26.639 -21.8794 12.4079 -64.8689 0.549253 15.221 -0.0733889 75.3183 3.31008 8.32414 -2.37651 -27.6724 2.14664 0.0 0.0 0.0 -0.72122 55.8344 -1.28318 -0.581549 0.0235086 0.0861487 23.445 -30.5214 -3.9545 -4.58919 0.0 0.0 -0.0 0.0 -0.0 9.14504 -2.6271 2.33429 -10.4952 -0.28784 -1.58271 34.4002 33.0548 5.54832 -12.2909 0.0 0.0 0.0 0.0 0.0 
3569.92023718 744.59 -1479.63333912 -6.35514377846 42.7120511716 3.39421587438 2.54464 0.0665562 0.471824 2.54476 0.0363983 0.475103 2.54504 -0.043242 0.474529 2.54473 0.0322429 0.475403 -18.3113 20.044 5.18588 -20.0989 35.8247 13.3989 -0.0 0.0 -0.0 0.719119 23.083 3.66489 -13.3921 -21.5996 61.6372 1.99716 -44.6879 0.820955 -27.4144 -1.72262 3.01834 0.0658281 0.681918 0.72593 -0.0 0.0 -0.0 13.2843 25.0095 -26.4495 -21.931 13.1214 -64.8456 0.551926 15.2916 -0.0740922 74.6858 3.24054 8.28229 -2.82661 -28.4081 4.2046 0.0 0.0 0.0 0.508262 55.5664 -2.24375 -1.34311 0.0529683 0.199308 24.2317 -30.474 -4.06414 -2.84935 0.0 0.0 -0.0 0.0 -0.0 8.37082 1.05368 2.65358 -10.6749 -0.290227 -1.61018 34.0035 32.4183 5.45419 -12.2059 0.0 0.0 0.0 0.0 0.0 
3569.07632132 743.351 -1484.74446944 -6.42441579662 39.0292548243 2.95355036046 2.56577 0.111459 0.496614 2.56591 0.0796326 0.5027 2.56659 -0.00501517 0.508943 2.56623 0.0754248 0.503348 -17.8098 20.4178 5.50658 -19.5566 36.311 13.6695 -0.0 0.0 -0.0 0.496225 22.9607 3.3457 -14.0874 -21.5435 62.2151 1.88826 -43.0836 0.745456 -28.0744 -1.78111 3.07948 0.0680319 1.03783 0.889826 -0.0 0.0 -0.0 13.3789 25.1335 -26.6555 -21.3511 12.3088 -64.7971 0.569798 15.7625 -0.0788764 75.2356 3.30097 8.31872 -2.82647 -27.1527 4.88558 0.0 0.0 0.0 -0.3494 55.4121 -1.7434 -2.0127 0.0776237 0.299112 24.2706 -30.4028 -4.06583 -2.2596 0.0 0.0 -0.0 0.0 -0.0 8.28842 0.745223 2.5778 -10.8276 -0.292189 -1.63352 32.6442 32.8248 5.32229 -12.2465 0.0 0.0 0.0 0.0 0.0 
3569.75102131 743.351 -1485.07626203 -6.11041384072 35.2560436645 2.43379283772 2.56577 0.111459 0.496614 2.56591 0.0796326 0.5027 2.56659 -0.00501517 0.508943 2.56623 0.0754248 0.503348 -17.8098 20.4178 5.50658 -19.5566 36.311 13.6695 -0.0 0.0 -0.0 0.496225 22.9607 3.3457 -14.0874 -21.5435 62.2151 1.88826 -43.0836 0.745456 -28.0744 -1.78111 3.07948 0.0680319 1.03783 0.889826 -0.0 0.0 -0.0 13.3789 25.1335 -26.6555 -21.3511 12.3088 -64.7971 0.569798 15.7625 -0.0788764 75.2356 3.30097 8.31872 -2.82647 -27.1527 4.88558 0.0 0.0 0.0 -0.3494 55.4121 -1.7434 -2.0127 0.0776237 0.299112 24.2706 -30.4028 -4.06583 -2.2596 0.0 0.0 -0.0 0.0 -0.0 8.28842 0.745223 2.5778 -10.8276 -0.292189 -1.63352 32.6442 32.8248 5.32229 -12.2465 0.0 0.0 0.0 0.0 0.0 
3557.53028352 724.868 -1515.74542121 -9.8525446133 39.8934707276 6.37261299308 3.00792 0.515964 0.57515 3.00798 0.478321 0.606816 3.01307 0.376125 0.67494 3.01275 0.477997 0.607071 -14.7876 18.823 -1.48716 -16.1707 36.8559 5.43316 -0.0 0.0 -0.0 -0.0425719 24.9147 2.81551 -18.6736 -15.9283 62.3576 1.77445 -41.312 0.668997 -32.188 -2.16123 3.44504 -0.917644 5.02686 -3.9247 -0.0 0.0 -0.0 13.4822 25.8817 -26.8089 -19.9678 13.812 -64.3019 0.703863 19.2223 -0.119192 78.1198 3.62352 8.50025 -2.82895 -27.5028 4.70905 0.0 0.0 0.0 15.3344 52.8393 -13.3454 -15.6745 0.322069 2.37638 38.5661 -24.7984 -5.45308 9.50239 -0.0 -0.0 -0.0 0.0 -0.0 7.50634 6.98459 -0.116501 -8.98765 -0.26441 -1.35257 37.1406 30.0978 5.63548 -10.7568 0.0 0.0 0.0 0.0 0.0 
